<?xml version="1.0" encoding="UTF-8"?>
<!-- Generator: visioncortex VTracer 0.6.3 -->
<svg version="1.1" xmlns="http://www.w3.org/2000/svg" width="1280" height="242">
<path d="M0 0 C422.4 0 844.8 0 1280 0 C1280 72.6 1280 145.2 1280 220 C1264.61 220 1253.2 218.46 1239.06 213.19 C1238.2 212.87 1237.33 212.55 1236.45 212.22 C1230.41 209.86 1225.25 206.79 1220 203 C1216.82 204.49 1215.31 205.62 1213.38 208.56 C1206.22 218.45 1197.68 224.57 1185.88 227.38 C1174.57 229.13 1163.92 226.4 1154 221 C1154 220.34 1154 219.68 1154 219 C1153.42 218.75 1152.85 218.5 1152.25 218.25 C1149.67 216.82 1147.94 215.22 1146 213 C1146 212.34 1146 211.68 1146 211 C1144.48 211.29 1142.96 211.58 1141.44 211.88 C1140.59 212.04 1139.74 212.2 1138.87 212.37 C1135.91 212.97 1135.91 212.97 1132.76 214.02 C1127.16 215.48 1121.63 215.37 1115.89 215.37 C1113.83 215.37 1111.78 215.41 1109.73 215.45 C1098.26 215.55 1088.69 213.17 1079 207 C1079 206.34 1079 205.68 1079 205 C1075.21 206 1072.28 206.81 1069 209 C1060.6 211.61 1048.66 213.35 1040.3 209.88 C1039 209 1037.72 208.09 1036.48 207.13 C1034.96 205.81 1034.96 205.81 1032.5 205.38 C1029.31 206.17 1027.07 207.71 1024.34 209.5 C1005.68 221.48 983.67 222.25 962.36 218.04 C948.52 214.95 936.74 208.35 927 198 C926.01 197.34 925.02 196.68 924 196 C924 195.34 924 194.68 924 194 C923.34 194 922.68 194 922 194 C920.49 192.32 920.49 192.32 918.88 190.12 C918.34 189.41 917.8 188.69 917.24 187.95 C916 186 916 186 916 184 C915.24 183.96 914.48 183.92 913.7 183.88 C910.19 183.69 906.69 183.47 903.19 183.25 C901.99 183.19 900.8 183.13 899.56 183.06 C886.9 182.23 873.88 178.33 864.34 169.46 C863.15 168.03 862.07 166.52 861 165 C859.91 163.7 858.8 162.41 857.69 161.12 C857.18 160.53 856.66 159.93 856.14 159.32 C855.57 158.67 855.57 158.67 855 158 C851.72 159.06 850.03 159.97 847.62 162.5 C842.6 166.85 835.36 166.98 829 167 C823.75 165.88 819.45 163.97 815 161 C815 160.34 815 159.68 815 159 C813.68 158.67 812.36 158.34 811 158 C811 157.01 811 156.02 811 155 C810.34 155 809.68 155 809 155 C805 148.25 805 148.25 805 146 C801.25 147.57 799.18 148.77 796.62 152 C793.77 155.26 792.08 156.1 788.08 157.34 C785.7 158.04 785.7 158.04 782.44 159.69 C777.28 161.72 771.8 160.93 766.39 160.52 C762.79 160.64 762.79 160.64 760.81 163.7 C759.92 165.34 759.92 165.34 759 167 C754.01 173.07 748.53 179.54 742 184 C741.01 184 740.02 184 739 184 C739 184.66 739 185.32 739 186 C727.6 191.83 717.58 194.4 704.69 194.38 C703.18 194.37 703.18 194.37 701.63 194.37 C693.76 194.24 687.27 193.18 680 190 C678.93 189.57 678.93 189.57 677.83 189.12 C672.56 186.77 668.15 183.24 663.61 179.71 C660.2 177.48 657.74 176.72 653.7 177.38 C652.89 177.58 652.08 177.79 651.25 178 C641.35 179.96 629.96 179.84 620.94 174.99 C617.77 173.37 614.46 172.76 611 172 C610.63 172.89 610.63 172.89 610.25 173.8 C608.82 176.32 607.38 177.54 605.06 179.25 C604.37 179.77 603.68 180.29 602.97 180.83 C601 182 601 182 598 182 C598 182.66 598 183.32 598 184 C585.02 189.31 570.02 190.76 556.81 185.38 C546.22 180.48 536.53 174.82 532.05 163.64 C531.13 161.83 531.13 161.83 529.18 161.4 C525.02 160.64 520.67 161.08 516.46 161.3 C510.81 161.44 507.7 160.16 503 157 C503 156.34 503 155.68 503 155 C502.34 155 501.68 155 501 155 C501 154.34 501 153.68 501 153 C498.69 153 496.38 153 494 153 C494 153.66 494 154.32 494 155 C483.52 161.83 471.99 164.56 459.67 162.42 C453.82 161.17 448.38 159.63 443 157 C443 156.34 443 155.68 443 155 C442.2 154.69 441.39 154.38 440.56 154.06 C438 153 438 153 437 152 C432.35 151.69 432.35 151.69 428 153 C421.6 153.41 416.03 153.3 410 151 C406.75 150.83 406.75 150.83 404 151 C404 151.66 404 152.32 404 153 C403.34 153 402.68 153 402 153 C402 153.66 402 154.32 402 155 C396.42 158.53 391.67 160.59 385.07 161.35 C382.85 161.82 382.85 161.82 381.71 163.82 C380.82 166.56 381.04 169.07 381.12 171.92 C380.92 175.26 379.37 177.99 378 181 C377.83 182.24 377.67 183.47 377.5 184.75 C376.94 188.42 376.52 188.59 374 191 C372.85 192.63 371.73 194.28 370.62 195.94 C368.1 199.6 365.82 202.6 362 205 C361.34 205 360.68 205 360 205 C360 205.66 360 206.32 360 207 C358.65 207.63 357.29 208.25 355.94 208.88 C354.81 209.4 354.81 209.4 353.65 209.93 C347.18 212.54 341.58 213.29 334.69 213.19 C333.47 213.19 333.47 213.19 332.23 213.19 C326.28 213.14 326.28 213.14 324 212 C319.81 211.19 316.17 211.03 312 212 C309.2 214.46 307.26 217.05 305.11 220.09 C302.28 223.99 298.95 227.23 295 230 C294.34 230 293.68 230 293 230 C293 230.66 293 231.32 293 232 C291.45 232.93 289.88 233.85 288.31 234.75 C287.44 235.26 286.57 235.77 285.68 236.3 C275.22 241.5 264.98 242.64 253.44 242.5 C251.46 242.52 251.46 242.52 249.44 242.55 C239.64 242.51 230.14 241.44 222.19 235.25 C218.35 232.54 216.61 232.42 212 233 C210.99 233.33 209.98 233.66 208.94 234 C198.38 237.28 183.89 235.61 174.18 230.52 C171.63 228.82 169.32 227 167 225 C166.3 224.44 165.61 223.87 164.89 223.29 C158.32 217.44 154.81 209.78 151 202 C150.34 202 149.68 202 149 202 C148.79 202.99 148.59 203.98 148.38 205 C145.73 213.98 138.84 219.46 131 224 C127.73 225.56 124.44 226.87 121 228 C119.94 228.36 118.87 228.71 117.78 229.08 C106.05 231.94 94.46 231.03 84 225 C82.32 224.28 80.63 223.57 78.94 222.88 C75.65 221.53 75.09 221.13 73 218 C69.25 216.07 65.29 215.41 61.19 214.58 C59 214 59 214 56 212.31 C51.8 210.48 48.39 210.89 44 212 C42.3 212.74 40.6 213.48 38.91 214.23 C35.63 215.55 32.25 216.29 28.81 217.06 C28.07 217.23 27.33 217.4 26.56 217.58 C17.58 219.59 9.25 221 0 221 C0 148.07 0 75.14 0 0 Z " fill="#ffe4f4" transform="translate(0,0)"/>
</svg>
