<?xml version="1.0" encoding="UTF-8"?>
<svg version="1.1" viewBox="0 0 1600 800" width="1280" height="1280" xmlns="http://www.w3.org/2000/svg">
<path transform="translate(1285 496)" d="m0 0c0.697-0.00475 1.39-0.00951 2.11-0.0144 6.1 0.0195 12.4 0.147 18.1 2.51 2.96 1.21 2.96 1.21 5.96 2.28 4.03 1.35 7.1 3.02 10.5 5.54 4.56 3.15 7.01 3.6 12.5 2.81 1.19-0.498 2.38-0.995 3.61-1.51 4.86-1.87 9.41-1.99 14.6-1.93 0.921 0.0054 1.84 0.0108 2.79 0.0164 16.3 0.361 27.8 6.95 39 18.5 3.91 4.32 7.03 8.89 9.98 13.9 0.835 1.27 0.835 1.27 1.69 2.56 1.64 3.04 2.46 6.1 3.31 9.44h3c0.519-1.09 1.04-2.17 1.57-3.29 0.704-1.45 1.41-2.89 2.11-4.34 0.34-0.713 0.679-1.43 1.03-2.16 3.16-6.45 6.69-11.6 12.8-15.5 0.744-0.491 1.49-0.982 2.25-1.49 2.09-1.15 3.86-1.75 6.18-2.2v-2c1.85-0.627 3.71-1.25 5.56-1.88 1.03-0.348 2.07-0.696 3.13-1.05 1.64-0.53 1.64-0.53 3.31-1.07 1.04-0.361 2.08-0.722 3.16-1.09 14.1-3.33 29.1-2.63 41.6 4.95 1.59 1.06 1.59 1.06 3.21 2.14 0.578 0.359 1.16 0.718 1.75 1.09 1.45 0.914 2.86 1.91 4.25 2.91v2c4.81 1.78 9.42 3.13 14.5 3.88 3.97 0.643 6.81 1.67 10.2 3.75 4.06 2.4 6.45 3.19 11.2 2.38 2.86-1.11 5.67-2.34 8.48-3.57 15.8-6.4 34.5-10.4 51.5-10.4v277h-1600v-276c26.9 2.34 26.9 2.34 39 6 1.02 0.286 2.03 0.572 3.08 0.867 6.06 1.83 11.7 4.34 17.4 7.13 0.675 0.332 1.35 0.665 2.04 1.01 3.02 1.54 5.5 2.98 8.12 5.18 2.82 2.13 4.92 2.49 8.4 2.81 0.482-0.722 0.964-1.44 1.46-2.19 0.947-1.39 0.947-1.39 1.91-2.81 0.626-0.928 1.25-1.86 1.9-2.81 0.57-0.722 1.14-1.44 1.73-2.19h2c0.208-0.722 0.415-1.44 0.629-2.19 1.74-3.57 4.19-5.5 7.31-7.81 0.576-0.435 1.15-0.87 1.75-1.32 7.27-5.33 15.5-9.8 24.7-9.81 0.817-0.00129 1.63-0.00258 2.48-0.00391 0.846 0.00387 1.69 0.00773 2.56 0.0117 0.838-0.00387 1.68-0.00773 2.54-0.0117 6.09 0.00958 11.7 0.0801 17.1 3.14 0.637 0.295 1.27 0.59 1.93 0.895 6.54 3.09 11 6.75 15.4 12.4 2.67 3.1 3.22 3.62 7.44 4.38 5.81-0.621 11.4-2.63 16.9-4.72 3.74-1.09 6.9-1.22 10.8-1.23 0.703-0.00191 1.41-0.00383 2.13-0.0058 1.48-0.00135 2.96 0.00229 4.44 0.0107 2.24 0.0107 4.48 1.05e-4 6.71-0.0127 9.54-0.0105 18.1 0.48 26.9 4.65 0.927 0.434 1.85 0.869 2.81 1.32 2.18 1.11 4.2 2.31 6.25 3.62 3.91 1.99 7.05 2.53 11.3 1.69 2.12-0.876 4.06-1.87 6.04-3.03 5.84-2.9 12.9-2.27 19.2-2.35 1.09-0.0374 2.19-0.0748 3.32-0.113 6.72-0.0725 10.8 0.8 16.5 4.37 3.24 1.83 5.35 1.78 8.98 1.12 3.38-1.5 6.51-3.35 9.69-5.25 22.5-12.8 49.7-15.5 74.8-8.94 15.1 4.15 27.4 10.7 38.7 21.5 1.95 1.86 3.86 3.53 5.95 5.2 2.59 2.23 4.16 4.05 5.9 6.95 0.93 1.53 1.91 3.03 2.94 4.5 0.938 1.36 0.938 1.36 1.89 2.74 4.88 3.56 9.84 2.97 15.7 2.95 20 0.149 20 0.149 26.4 3.31 1.67 0.758 1.67 0.758 3.38 1.53 8.67 4.03 15.4 8.03 21.6 15.5 0.521 0.57 1.04 1.14 1.58 1.73 2.57 2.88 4.23 5.6 5.42 9.27 4.44 0.444 6.4 0.441 10.1-2.25 0.985-0.91 1.96-1.83 2.94-2.75 6.66-5.42 15.6-6.78 24-6 10.8 2.34 18.5 9.29 25 18 1.03 2.1 1.03 2.1 1.75 4 0.909 3.1 0.909 3.1 3.25 4 2.21 0.105 2.21 0.105 5-1 1.68-1.73 1.68-1.73 3.31-3.81 6.15-7.18 15.3-12.4 24.7-14.2 1.51 0.0423 3.02 0.143 4.52 0.289 9.64 1.09 9.64 1.09 18.1-2.45 1.71-2.87 3.03-5.78 4.38-8.84 3.45-4.69 6.89-8.18 12-11 0.887-0.887 1.77-1.77 2.69-2.69 0.763-0.763 1.53-1.53 2.31-2.31h2v-2c2.38-1.62 2.38-1.62 5.56-3.44 1.03-0.597 2.07-1.19 3.13-1.81 15.6-8.29 37.1-11 54.4-6.57 1.66 0.575 3.3 1.18 4.94 1.81 1.51 0.476 1.51 0.476 3.05 0.961 7.94 2.68 14.1 6.62 20.7 11.6 1.09 0.804 2.19 1.6 3.29 2.4 0.802 0.616 0.802 0.616 1.62 1.24 4.4 3.01 7.48 2.93 12.7 1.99 0.88-0.18 1.76-0.36 2.67-0.545 12-2.08 23.7-3.01 35.1 2.31 0.99 0.33 1.98 0.66 3 1v2c3.89 1.3 7.97 1.71 12 1 2.92-1.69 5.09-4.03 7.39-6.48 10.4-9.81 24.7-12.7 38.4-12.8 0.96-0.0206 1.92-0.0412 2.91-0.0625 6.12-0.0334 10.7 0.795 16.3 3.31 1.49 0.547 1.49 0.547 3.02 1.11 14.5 5.61 23.8 14.2 31 27.9v2c0.796-0.0471 1.59-0.0943 2.41-0.143 3.65-0.189 7.31-0.305 11-0.42 1.25-0.0754 2.5-0.151 3.79-0.229 7.17-0.169 11.2 0.343 16.6 5.26 1.41 1.5 22 3.01 4.21 4.53 2.92 1.46 4.75 1.37 8 1 1.85-1.08 3.47-2.33 5.17-3.63 11.7-8.72 26.8-9.56 40.8-8.37 0.99 0.33 1.98 0.66 3 1 0.833 0.202 1.67 0.405 2.52 0.613 5.48 1.34 9.26 2.51 13.5 6.39 5.07 4.27 5.07 4.27 11.2 6.2 2.62-0.323 5.12-1 7.65-1.74 5.9-1.26 12.6-1.08 18.4 0.547 4.28 1.14 7.35 1.37 11.8 1 1.88-1.38 1.88-1.38 3-3h2v-2c6.77-4.24 12.6-6.71 20.6-7.68 2.44-0.19 2.44-0.19 4.43-1.32 0.263-2.57 0.422-5.05 0.5-7.62 0.432-13.8 5.72-27.7 14.9-38.1 0.846-0.742 1.69-1.49 2.56-2.25 0.523-0.48 1.05-0.959 1.59-1.45 13.8-12.4 28-14.5 46-13.8 3.29 0.309 6.28 1.22 9.41 2.23 3.87 0.744 7.17 1.04 11 0 2.33-2.3 3.84-4.59 5.46-7.42 1.58-2.65 3.29-4.48 5.54-6.58 1.08-1.14 1.08-1.14 2.19-2.31 9.45-9.03 19.7-15 31.8-19.7 0.775-0.312 1.55-0.624 2.35-0.945 8.82-3.3 18.1-3.13 27.4-3.18zm-158 80.1 1 2zm-38 37 4 1z" fill="#ffc7e9"/>
</svg>
